<svg xmlns="http://www.w3.org/2000/svg" xmlns:xlink="http://www.w3.org/1999/xlink" viewBox="0 0 732.97 535.57"><defs><style>.cls-1,.cls-10{fill:none;}.cls-2{fill:#c1c1c1;}.cls-3{clip-path:url(#clip-path);}.cls-4{fill:#8c8c8c;}.cls-13,.cls-5{fill:#231f20;}.cls-6{fill:#fff;}.cls-7{fill:#d8735e;}.cls-8{fill:#65cec6;}.cls-9{clip-path:url(#clip-path-2);}.cls-10{opacity:0.44;}.cls-11{fill:#a0e0de;}.cls-12{clip-path:url(#clip-path-3);}.cls-13{opacity:0.3;}.cls-14{fill:#fab15a;}.cls-15{fill:#2b262a;}</style><clipPath id="clip-path"><path id="prop" class="cls-1" d="M400.89,478.26c-1.74-.9-5.08-1.45-8.7-1.45H318.48c-3.63,0-7,.55-8.71,1.45L240.4,514c-3.08,1.59-.11,3.57,6.07,4,16.09,1.25,49.9,3.11,108.86,3.11s92.77-1.86,108.86-3.11c6.18-.48,9.16-2.46,6.08-4Z"/></clipPath><clipPath id="clip-path-2"><path class="cls-1" d="M479.52,244.87,434.15,88.81a7.92,7.92,0,0,0-7-4.13H283.48a7.92,7.92,0,0,0-7,4.13L231.14,244.87a7.94,7.94,0,0,0,4.6,11.4c14.61,4.52,57.31,12.33,119.59,14.12,62.29-1.79,105-9.6,119.59-14.12A7.93,7.93,0,0,0,479.52,244.87Z"/></clipPath><clipPath id="clip-path-3"><path class="cls-1" d="M493.86,31.24a30.2,30.2,0,0,0-26.47-15.67H243.28a30.2,30.2,0,0,0-26.47,15.67L5.88,415.87A30.21,30.21,0,0,0,24.35,459.5c48.92,13.5,151.71,33.55,331,33.55S637.4,473,686.31,459.5a30.19,30.19,0,0,0,18.47-43.63Z"/></clipPath></defs><title>Asset 1</title><g id="Layer_2" data-name="Layer 2"><g id="Layer_1-2" data-name="Layer 1"><path id="prop-2" data-name="prop" class="cls-2" d="M400.89,478.26c-1.74-.9-5.08-1.45-8.7-1.45H318.48c-3.63,0-7,.55-8.71,1.45L240.4,514c-3.08,1.59-.11,3.57,6.07,4,16.09,1.25,49.9,3.11,108.86,3.11s92.77-1.86,108.86-3.11c6.18-.48,9.16-2.46,6.08-4Z"/><g class="cls-3"><path class="cls-4" d="M421.06,508.32l4.68,17.89c1.49,5.72,4.61,9.36,8,9.36h25.55c8.38,0,12.16-19.57,5.69-29.52L444.78,474.9c-1.56-2.39-3.5-3.74-5.52-3.81l-156.19-5.46c-2.79-.09-38.09,30.94-39.82,35l5.8,2.39c-4.65,10.92,27.45-4.2,34.92-4.2L413,499C416.44,499,419.56,502.59,421.06,508.32Z"/></g><path class="cls-5" d="M355.33,523.26c-60,0-94.06-2-109-3.12-3.88-.3-8.63-1.29-9.22-4.26-.15-.72-.21-2.53,2.33-3.84l69.37-35.69c2.06-1.06,5.68-1.69,9.69-1.69h73.71c4,0,7.63.63,9.68,1.69L471.25,512c2.54,1.31,2.48,3.12,2.33,3.84-.6,3-5.34,4-9.22,4.26C449.4,521.31,415.34,523.26,355.33,523.26Zm-112.69-8a20.34,20.34,0,0,0,4,.65C261.54,517,295.47,519,355.33,519s93.8-2,108.69-3.11a20.07,20.07,0,0,0,4-.65l-68.11-35a19.57,19.57,0,0,0-7.72-1.22H318.48a19.64,19.64,0,0,0-7.73,1.22Z"/><path class="cls-6" d="M493.86,31.24a30.2,30.2,0,0,0-26.47-15.67H243.28a30.2,30.2,0,0,0-26.47,15.67L5.88,415.87A30.21,30.21,0,0,0,24.35,459.5c48.92,13.5,151.71,33.55,331,33.55S637.4,473,686.31,459.5a30.19,30.19,0,0,0,18.47-43.63Z"/><path class="cls-7" d="M19.52,392.21A19,19,0,0,0,30,400.13c40.3,12.47,139.38,35.25,325.37,35.25s285.08-22.78,325.38-35.25a19,19,0,0,0,10.44-7.92l-18.41-34.77c-44.64,12.78-142.67,32.88-317.41,32.88s-272.76-20.1-317.4-32.88Z"/><path class="cls-5" d="M664,377.58l4.4,8.32c-45.12,13-141.18,32.31-313,32.31S87.4,398.89,42.28,385.9l4.4-8.32C96,390.15,193.41,407.49,355.33,407.49S614.67,390.15,664,377.58m8.76-20.14c-44.64,12.78-142.67,32.88-317.41,32.88s-272.76-20.1-317.4-32.88L19.52,392.21A19,19,0,0,0,30,400.13c40.3,12.47,139.38,35.25,325.37,35.25s285.08-22.78,325.38-35.25a19,19,0,0,0,10.44-7.92l-18.41-34.77Z"/><g id="window"><path class="cls-5" d="M497.19,254.45,445.36,76.18a9.07,9.07,0,0,0-7.95-4.71H273.25a9.09,9.09,0,0,0-7.95,4.71L213.48,254.45a9.06,9.06,0,0,0,5.25,13c16.69,5.16,65.46,14.08,136.6,16.13,71.15-2.05,119.92-11,136.61-16.13A9.06,9.06,0,0,0,497.19,254.45Z"/><path class="cls-8" d="M479.52,244.87,434.15,88.81a7.92,7.92,0,0,0-7-4.13H283.48a7.92,7.92,0,0,0-7,4.13L231.14,244.87a7.94,7.94,0,0,0,4.6,11.4c14.61,4.52,57.31,12.33,119.59,14.12,62.29-1.79,105-9.6,119.59-14.12A7.93,7.93,0,0,0,479.52,244.87Z"/><g id="window_clip" data-name="window clip"><g class="cls-9"><path class="cls-10" d="M503.63,257.94,449.45,71.58a9.48,9.48,0,0,0-8.31-4.92H269.53a9.48,9.48,0,0,0-8.31,4.92L207,257.94a9.46,9.46,0,0,0,5.49,13.61C230,277,281,286.27,355.33,288.42c74.38-2.15,125.36-11.47,142.81-16.87A9.48,9.48,0,0,0,503.63,257.94Z"/><polygon class="cls-11" points="217.31 246.31 415.05 48.57 441.14 66.66 226.1 281.7 217.31 246.31"/><polygon class="cls-11" points="256.67 278.5 454.42 80.75 497.65 112.58 282.62 327.61 256.67 278.5"/><polygon class="cls-11" points="208.51 219.02 406.25 21.28 420.9 26.4 205.86 241.44 208.51 219.02"/></g></g></g><g id="shuttle_clip" data-name="shuttle clip"><g class="cls-12"><path class="cls-13" d="M203,19.21c102.36,5.92,208.78,5.22,250.88,4.63A29.27,29.27,0,0,1,480.68,40.5l177,370.89a29.25,29.25,0,0,1-19.05,41c-56,14.34-197.72,35.64-530.47,24.46-11.13-.38,699.8,93.8,618.27-58.53C549.71,88,571.91,107.18,571.91,107.18L484.06,2.05S195,18.75,203,19.21Z"/><path class="cls-14" d="M19.52,8.49A19,19,0,0,0,30,16.41c40.3,12.47,139.38,35.25,325.37,35.25S640.41,28.88,680.71,16.41a19,19,0,0,0,10.44-7.92L672.74,4.42C628.1,17.2,530.07,37.3,355.33,37.3S82.57,17.2,37.93,4.42Z"/><path class="cls-5" d="M355.33,56C170.8,56,71.48,33.75,28.69,20.51a23.49,23.49,0,0,1-12.78-9.69L12.56,5.63,38.06,0l1,.3C81.81,12.52,179.68,33,355.33,33S628.86,12.52,671.56.3l1-.3,25.5,5.63-3.35,5.19A23.47,23.47,0,0,1,682,20.51C639.19,33.75,539.86,56,355.33,56ZM28.16,11a14.54,14.54,0,0,0,3.07,1.33c42.32,13.1,140.7,35.06,324.1,35.06s281.79-22,324.11-35.06A14.76,14.76,0,0,0,682.51,11l-9.64-2.13C629.2,21.22,530.62,41.59,355.33,41.59S81.47,21.22,37.79,8.85Z"/><polygon class="cls-15" points="519.33 154.58 527.14 169.85 550.25 162.34 562.43 148.47 572.69 128.28 558.39 132.21 551.61 137.84 538.17 148.94 527.12 152.31 519.33 154.58"/><path class="cls-14" d="M522.12,156.22a3.22,3.22,0,0,1-.29-6.42c31.12-2.9,32.28-27.05,32.31-28.08a3.23,3.23,0,0,1,3.21-3.12h.1a3.21,3.21,0,0,1,3.12,3.3c0,.3-1.2,30.86-38.14,34.31Z"/><path class="cls-14" d="M530.1,171.84a3.22,3.22,0,0,1-.3-6.43c31.32-2.92,32.29-27,32.31-28.06a3.26,3.26,0,0,1,3.3-3.14,3.23,3.23,0,0,1,3.14,3.3c0,.31-1.21,30.87-38.15,34.31Z"/><polygon class="cls-15" points="193.26 154.58 185.46 169.85 162.34 162.34 150.16 148.47 139.9 128.28 154.2 132.21 160.98 137.84 174.42 148.94 185.47 152.31 193.26 154.58"/><path class="cls-14" d="M190.47,156.22h-.3c-36.94-3.45-38.14-34-38.15-34.31a3.21,3.21,0,0,1,3.14-3.3,3.27,3.27,0,0,1,3.29,3.12h0c0,1,1.19,25.18,32.32,28.08a3.22,3.22,0,0,1-.3,6.42Z"/><path class="cls-14" d="M182.49,171.84l-.3,0c-36.94-3.44-38.14-34-38.15-34.31a3.23,3.23,0,0,1,3.14-3.3,3.27,3.27,0,0,1,3.3,3.13c0,1.08,1.22,25.17,32.31,28.07a3.22,3.22,0,0,1-.3,6.43Z"/><path class="cls-7" d="M71.45,274.86s.7,27.55,34.46,31.11a1.13,1.13,0,0,0,1.12-.6l6.9-13.52a1.09,1.09,0,0,0-.87-1.58c-32.95-3.92-33.63-31-33.63-31"/><path class="cls-5" d="M106,308.13l-.33,0c-35.23-3.72-36.37-32.9-36.38-33.19l4.29-.11-2.15.05,2.15-.05c0,1,1.12,25.35,31.84,28.95l5.9-11.56c-33-4.71-34-32.61-34.06-32.9l4.29-.11c0,1,1.12,25.3,31.74,28.94a3.28,3.28,0,0,1,2.51,1.72,3.23,3.23,0,0,1,0,3l-6.9,13.52A3.3,3.3,0,0,1,106,308.13Z"/><path class="cls-7" d="M639.7,274.86S639,302.41,605.25,306a1.13,1.13,0,0,1-1.12-.6l-6.91-13.52a1.1,1.1,0,0,1,.88-1.58c32.94-3.92,33.63-31,33.63-31"/><path class="cls-5" d="M605.13,308.13a3.3,3.3,0,0,1-2.92-1.79l-6.9-13.51a3.2,3.2,0,0,1,0-3,3.28,3.28,0,0,1,2.5-1.72c30.63-3.64,31.71-27.91,31.74-28.94l4.29.11c0,.29-1.09,28.19-34.06,32.9l5.91,11.56c30.72-3.6,31.81-27.91,31.84-28.95l4.29.11c0,.29-1.15,29.47-36.38,33.19Z"/></g></g><circle class="cls-7" cx="355.33" cy="345.64" r="24.32"/><path class="cls-5" d="M355.33,329.91a15.74,15.74,0,1,1-15.73,15.73,15.75,15.75,0,0,1,15.73-15.73m0-8.58a24.32,24.32,0,1,0,24.32,24.31,24.3,24.3,0,0,0-24.32-24.31Z"/><circle class="cls-14" cx="226.6" cy="332.77" r="24.32"/><path class="cls-5" d="M226.6,317a15.73,15.73,0,1,1-15.73,15.73A15.75,15.75,0,0,1,226.6,317m0-8.59a24.32,24.32,0,1,0,24.32,24.32,24.31,24.31,0,0,0-24.32-24.32Z"/><circle class="cls-14" cx="484.06" cy="332.77" r="24.32"/><path class="cls-5" d="M484.06,317a15.73,15.73,0,1,1-15.73,15.73A15.75,15.75,0,0,1,484.06,317m0-8.59a24.32,24.32,0,1,0,24.32,24.32,24.31,24.31,0,0,0-24.32-24.32Z"/><path class="cls-5" d="M355.33,495.19c-182.5,0-286.06-21.07-331.55-33.63A32.33,32.33,0,0,1,4,414.84L214.93,30.21a32.33,32.33,0,0,1,28.35-16.78H467.39a32.33,32.33,0,0,1,28.35,16.78L706.66,414.84a32.32,32.32,0,0,1-19.77,46.72C641.4,474.12,537.83,495.19,355.33,495.19Zm-112-477.47a28.06,28.06,0,0,0-24.59,14.55L7.76,416.9a28.05,28.05,0,0,0,17.16,40.53c45.28,12.5,148.41,33.47,330.41,33.47s285.14-21,330.41-33.47A28,28,0,0,0,702.9,416.9L492,32.27a28,28,0,0,0-24.58-14.55Z"/><path class="cls-5" d="M194.31,321.47a5.62,5.62,0,0,0-1,11.16L257.93,344a5.29,5.29,0,0,0,1,.08,5.65,5.65,0,0,0,5.54-4.65h0a5.64,5.64,0,0,0-4.56-6.51l-64.6-11.36a5.36,5.36,0,0,0-1-.08Z"/><path class="cls-5" d="M516.36,321.47a5.36,5.36,0,0,0-1,.08l-64.6,11.36a5.65,5.65,0,0,0-4.57,6.51h0a5.65,5.65,0,0,0,5.55,4.65,5.36,5.36,0,0,0,1-.08l64.6-11.36a5.62,5.62,0,0,0-1-11.16Z"/></g></g></svg>