<?xml version="1.0" encoding="UTF-8" standalone="no"?>
<svg
   xmlns:dc="http://purl.org/dc/elements/1.1/"
   xmlns:cc="http://creativecommons.org/ns#"
   xmlns:rdf="http://www.w3.org/1999/02/22-rdf-syntax-ns#"
   xmlns:svg="http://www.w3.org/2000/svg"
   xmlns="http://www.w3.org/2000/svg"
   id="svg8"
   version="1.1"
   viewBox="0 0 16.933333 16.933334"
   height="64"
   width="64">
  <defs
     id="defs2">
    <style
       id="style1387">.cls-1,.cls-13{fill:none;}.cls-2{fill:#c0392b;}.cls-3{fill:#e67e22;}.cls-4{fill:#ecf0f1;}.cls-5{fill:#c1c1c1;}.cls-6{clip-path:url(#clip-path);}.cls-7{fill:#8c8c8c;}.cls-16,.cls-8{fill:#231f20;}.cls-9{fill:#fff;}.cls-10{fill:#d8735e;}.cls-11{fill:#65cec6;}.cls-12{clip-path:url(#clip-path-2);}.cls-13{opacity:0.44;}.cls-14{fill:#a0e0de;}.cls-15{clip-path:url(#clip-path-3);}.cls-16{opacity:0.3;}.cls-17{fill:#fab15a;}.cls-18{fill:#2b262a;}</style>
    <clipPath
       id="clip-path">
      <path
         id="prop"
         class="cls-1"
         d="M448.07,534.54c-1.95-1-5.68-1.62-9.73-1.62H356c-4.06,0-7.79.62-9.73,1.62l-77.54,39.89c-3.45,1.78-.12,4,6.79,4.53,18,1.4,55.77,3.48,121.67,3.48s103.68-2.08,121.67-3.48c6.9-.54,10.23-2.75,6.78-4.53Z" />
    </clipPath>
    <clipPath
       id="clip-path-2">
      <path
         class="cls-1"
         d="M536,273.69,485.24,99.26a8.88,8.88,0,0,0-7.78-4.61H316.83a8.88,8.88,0,0,0-7.78,4.61L258.34,273.69a8.87,8.87,0,0,0,5.14,12.74c16.33,5.05,64,13.78,133.67,15.78,69.61-2,117.33-10.73,133.66-15.78A8.87,8.87,0,0,0,536,273.69Z"
         id="path1391" />
    </clipPath>
    <clipPath
       id="clip-path-3">
      <path
         class="cls-1"
         d="M552,34.92a33.73,33.73,0,0,0-29.58-17.51H271.9a33.75,33.75,0,0,0-29.58,17.51L6.58,464.81a33.75,33.75,0,0,0,20.64,48.76c54.67,15.09,169.56,37.5,369.93,37.5s315.26-22.41,369.93-37.5a33.75,33.75,0,0,0,20.64-48.76Z"
         id="path1394" />
    </clipPath>
    <clipPath
       id="clip-path-7">
      <path
         id="prop-0"
         class="cls-1"
         d="m 448.07,534.54 c -1.95,-1 -5.68,-1.62 -9.73,-1.62 H 356 c -4.06,0 -7.79,0.62 -9.73,1.62 l -77.54,39.89 c -3.45,1.78 -0.12,4 6.79,4.53 18,1.4 55.77,3.48 121.67,3.48 65.9,0 103.68,-2.08 121.67,-3.48 6.9,-0.54 10.23,-2.75 6.78,-4.53 z" />
    </clipPath>
    <clipPath
       id="clip-path-2-9">
      <path
         class="cls-1"
         d="M 536,273.69 485.24,99.26 a 8.88,8.88 0 0 0 -7.78,-4.61 H 316.83 a 8.88,8.88 0 0 0 -7.78,4.61 l -50.71,174.43 a 8.87,8.87 0 0 0 5.14,12.74 c 16.33,5.05 64,13.78 133.67,15.78 69.61,-2 117.33,-10.73 133.66,-15.78 A 8.87,8.87 0 0 0 536,273.69 Z"
         id="path1391-3" />
    </clipPath>
    <clipPath
       id="clip-path-3-6">
      <path
         class="cls-1"
         d="M 552,34.92 A 33.73,33.73 0 0 0 522.42,17.41 H 271.9 A 33.75,33.75 0 0 0 242.32,34.92 L 6.58,464.81 a 33.75,33.75 0 0 0 20.64,48.76 c 54.67,15.09 169.56,37.5 369.93,37.5 200.37,0 315.26,-22.41 369.93,-37.5 a 33.75,33.75 0 0 0 20.64,-48.76 z"
         id="path1394-0" />
    </clipPath>
  </defs>
  <metadata
     id="metadata5">
    <rdf:RDF>
      <cc:Work
         rdf:about="">
        <dc:format>image/svg+xml</dc:format>
        <dc:type
           rdf:resource="http://purl.org/dc/dcmitype/StillImage" />
        <dc:title></dc:title>
      </cc:Work>
    </rdf:RDF>
  </metadata>
  <g
     transform="translate(0,-280.06665)"
     id="layer1">
    <rect
       ry="1.9505765"
       y="280.06665"
       x="4.4504802e-07"
       height="16.933332"
       width="16.933332"
       id="rect1366"
       style="fill:#252347;fill-opacity:1;stroke:none;stroke-width:1.36368835;stroke-miterlimit:4;stroke-dasharray:none" />
  </g>
  <g
     style="display:none"
     id="layer3">
    <circle
       r="0.35435265"
       cy="2.53949"
       cx="2.4160256"
       id="path1545"
       style="fill:#e6e6e6;fill-opacity:1;stroke:none;stroke-width:0.75214279;stroke-miterlimit:4;stroke-dasharray:none" />
    <circle
       r="0.35435265"
       cy="5.8082438"
       cx="12.461444"
       id="path1545-3"
       style="fill:#e6e6e6;fill-opacity:1;stroke:none;stroke-width:0.75214279;stroke-miterlimit:4;stroke-dasharray:none" />
    <circle
       r="0.18730921"
       cy="13.859742"
       cx="2.9733737"
       id="path1545-6"
       style="fill:#e6e6e6;fill-opacity:1;stroke:none;stroke-width:0.39757925;stroke-miterlimit:4;stroke-dasharray:none" />
    <circle
       r="0.18730922"
       cy="15.697206"
       cx="14.967094"
       id="path1545-6-7"
       style="fill:#e6e6e6;fill-opacity:1;stroke:none;stroke-width:0.39757925;stroke-miterlimit:4;stroke-dasharray:none" />
    <circle
       r="0.23742227"
       cy="14.811853"
       cx="11.308844"
       id="path1545-6-7-5"
       style="fill:#e6e6e6;fill-opacity:1;stroke:none;stroke-width:0.50394833;stroke-miterlimit:4;stroke-dasharray:none" />
    <circle
       r="0.1539005"
       cy="1.3314744"
       cx="12.862346"
       id="path1545-3-6"
       style="fill:#e6e6e6;fill-opacity:1;stroke:none;stroke-width:0.32666653;stroke-miterlimit:4;stroke-dasharray:none" />
    <circle
       r="0.070378773"
       cy="3.8538311"
       cx="4.7941465"
       id="path1545-3-6-2"
       style="fill:#e6e6e6;fill-opacity:1;stroke:none;stroke-width:0.14938477;stroke-miterlimit:4;stroke-dasharray:none" />
    <circle
       r="0.23742223"
       cy="7.4285607"
       cx="1.7205476"
       id="path1545-61"
       style="fill:#e6e6e6;fill-opacity:1;stroke:none;stroke-width:0.50394833;stroke-miterlimit:4;stroke-dasharray:none" />
    <circle
       r="0.1539005"
       cy="8.4976397"
       cx="15.017206"
       id="path1545-61-8"
       style="fill:#e6e6e6;fill-opacity:1;stroke:none;stroke-width:0.32666656;stroke-miterlimit:4;stroke-dasharray:none" />
    <circle
       r="0.087083176"
       cy="15.680508"
       cx="5.4289126"
       id="path1545-6-7-5-7"
       style="fill:#e6e6e6;fill-opacity:1;stroke:none;stroke-width:0.1848412;stroke-miterlimit:4;stroke-dasharray:none" />
  </g>
  <g
     id="layer2">
    <g
       transform="matrix(0.01798555,0,0,0.01798555,1.3237832,3.0725333)"
       id="Layer_2"
       data-name="Layer 2">
      <g
         id="Layer_1-2"
         data-name="Layer 1">
        <path
           style="fill:#c1c1c1"
           id="prop-2"
           data-name="prop"
           class="cls-5"
           d="m 448.07,534.54 c -1.95,-1 -5.68,-1.62 -9.73,-1.62 H 356 c -4.06,0 -7.79,0.62 -9.73,1.62 l -77.54,39.89 c -3.45,1.78 -0.12,4 6.79,4.53 18,1.4 55.77,3.48 121.67,3.48 65.9,0 103.68,-2.08 121.67,-3.48 6.9,-0.54 10.23,-2.75 6.78,-4.53 z" />
        <g
           class="cls-6"
           clip-path="url(#clip-path)"
           id="g1410">
          <path
             style="fill:#8c8c8c"
             class="cls-7"
             d="m 470.6,568.14 5.23,20 c 1.68,6.4 5.16,10.46 9,10.46 h 28.57 c 9.36,0 13.58,-21.87 6.36,-33 l -22.62,-34.81 c -1.74,-2.68 -3.91,-4.18 -6.17,-4.26 l -174.57,-6.1 c -3.12,-0.11 -42.57,34.58 -44.51,39.12 l 6.49,2.67 c -5.2,12.21 30.67,-4.69 39,-4.69 l 144.24,0.15 c 3.82,0 7.31,4.06 8.98,10.46 z"
             id="path1408" />
        </g>
        <path
           style="fill:#231f20"
           class="cls-8"
           d="m 397.15,584.83 c -67.07,0 -105.14,-2.18 -121.86,-3.48 -4.33,-0.34 -9.64,-1.44 -10.31,-4.77 -0.16,-0.8 -0.23,-2.82 2.61,-4.28 l 77.54,-39.89 c 2.3,-1.19 6.35,-1.89 10.82,-1.89 h 82.39 c 4.48,0 8.53,0.7 10.82,1.89 l 77.54,39.89 c 2.84,1.46 2.77,3.48 2.61,4.28 -0.67,3.33 -6,4.43 -10.31,4.77 -16.72,1.3 -54.79,3.48 -121.85,3.48 z m -125.95,-9 a 23.59,23.59 0 0 0 4.47,0.73 c 16.65,1.29 54.57,3.47 121.48,3.47 66.91,0 104.83,-2.18 121.48,-3.47 a 23.73,23.73 0 0 0 4.47,-0.73 L 447,536.67 c -1.32,-0.68 -4.49,-1.36 -8.63,-1.36 H 356 c -4.13,0 -7.31,0.68 -8.62,1.36 z"
           id="path1412" />
        <path
           style="fill:#ffffff"
           class="cls-9"
           d="M 552,34.92 A 33.73,33.73 0 0 0 522.42,17.41 H 271.9 A 33.75,33.75 0 0 0 242.32,34.92 L 6.58,464.81 a 33.75,33.75 0 0 0 20.64,48.76 c 54.67,15.09 169.56,37.5 369.93,37.5 200.37,0 315.26,-22.41 369.93,-37.5 a 33.75,33.75 0 0 0 20.64,-48.76 z"
           id="path1414" />
        <path
           style="fill:#d8735e"
           class="cls-10"
           d="m 21.81,438.36 a 21.33,21.33 0 0 0 11.67,8.86 c 45.05,13.93 155.79,39.39 363.67,39.39 207.88,0 318.62,-25.46 363.66,-39.39 a 21.33,21.33 0 0 0 11.67,-8.86 l -20.57,-38.85 c -49.9,14.27 -159.47,36.74 -354.76,36.74 -195.29,0 -304.87,-22.47 -354.76,-36.74 z"
           id="path1416" />
        <path
           style="fill:#231f20"
           class="cls-8"
           d="m 742.12,422 4.92,9.29 c -50.44,14.52 -157.8,36.12 -349.89,36.12 -192.09,0 -299.46,-21.58 -349.89,-36.1 L 52.18,422 c 55.11,14 164,33.42 345,33.42 181,0 289.82,-19.36 344.94,-33.42 m 9.79,-22.51 c -49.9,14.27 -159.47,36.74 -354.76,36.74 -195.29,0 -304.87,-22.45 -354.76,-36.72 l -20.58,38.85 a 21.33,21.33 0 0 0 11.67,8.86 c 45.05,13.93 155.79,39.39 363.67,39.39 207.88,0 318.62,-25.46 363.66,-39.39 a 21.33,21.33 0 0 0 11.67,-8.86 l -20.57,-38.85 z"
           id="path1418" />
        <g
           id="window">
          <path
             style="fill:#231f20"
             class="cls-8"
             d="M 555.7,284.39 497.77,85.15 a 10.13,10.13 0 0 0 -8.89,-5.26 H 305.41 a 10.13,10.13 0 0 0 -8.89,5.26 L 238.6,284.39 a 10.13,10.13 0 0 0 5.87,14.55 c 18.65,5.77 73.16,15.75 152.68,18 79.52,-2.29 134,-12.27 152.68,-18 a 10.13,10.13 0 0 0 5.87,-14.55 z"
             id="path1420" />
          <path
             style="fill:#65cec6"
             class="cls-11"
             d="M 536,273.69 485.24,99.26 a 8.88,8.88 0 0 0 -7.78,-4.61 H 316.83 a 8.88,8.88 0 0 0 -7.78,4.61 l -50.71,174.43 a 8.87,8.87 0 0 0 5.14,12.74 c 16.33,5.05 64,13.78 133.67,15.78 69.61,-2 117.33,-10.73 133.66,-15.78 A 8.87,8.87 0 0 0 536,273.69 Z"
             id="path1422" />
          <g
             id="window_clip"
             data-name="window clip">
            <g
               class="cls-12"
               clip-path="url(#clip-path-2)"
               id="g1432">
              <path
                 style="opacity:0.43999999;fill:none"
                 class="cls-13"
                 d="M 562.89,288.29 502.34,80 a 10.59,10.59 0 0 0 -9.29,-5.51 H 301.25 A 10.61,10.61 0 0 0 292,80 l -60.6,208.29 a 10.6,10.6 0 0 0 6.14,15.22 c 19.5,6 76.48,16.45 159.61,18.85 83.13,-2.4 140.11,-12.82 159.61,-18.85 a 10.59,10.59 0 0 0 6.13,-15.22 z"
                 id="path1424" />
              <polygon
                 style="fill:#a0e0de"
                 class="cls-14"
                 points="463.89,54.28 493.05,74.5 252.71,314.85 242.88,275.3 "
                 id="polygon1426" />
              <polygon
                 style="fill:#a0e0de"
                 class="cls-14"
                 points="507.89,90.25 556.21,125.82 315.87,366.17 286.88,311.27 "
                 id="polygon1428" />
              <polygon
                 style="fill:#a0e0de"
                 class="cls-14"
                 points="454.06,23.78 470.43,29.51 230.09,269.85 233.05,244.8 "
                 id="polygon1430" />
            </g>
          </g>
        </g>
        <g
           id="shuttle_clip"
           data-name="shuttle clip">
          <g
             class="cls-15"
             clip-path="url(#clip-path-3)"
             id="g1462">
            <path
               style="opacity:0.3;fill:#231f20"
               class="cls-16"
               d="m 226.83,21.47 c 114.4,6.61 233.35,5.84 280.4,5.17 a 32.75,32.75 0 0 1 30,18.63 L 735.1,459.8 a 32.7,32.7 0 0 1 -21.3,45.78 c -62.58,16 -221,39.84 -592.89,27.34 -12.44,-0.42 782.15,104.84 691,-65.42 C 614.39,98.4 639.21,119.79 639.21,119.79 L 541,2.29 c 0,0 -323.09,18.71 -314.17,19.18 z"
               id="path1436" />
            <path
               style="fill:#fab15a"
               class="cls-17"
               d="m 21.81,9.49 a 21.27,21.27 0 0 0 11.67,8.85 c 45.05,13.94 155.79,39.4 363.67,39.4 207.88,0 318.62,-25.46 363.66,-39.4 A 21.27,21.27 0 0 0 772.48,9.49 L 751.91,4.94 C 702,19.22 592.44,41.69 397.15,41.69 201.86,41.69 92.28,19.22 42.39,4.94 Z"
               id="path1438" />
            <path
               style="fill:#231f20"
               class="cls-8"
               d="M 397.15,62.54 C 190.91,62.54 79.89,37.72 32.07,22.93 A 26.37,26.37 0 0 1 17.78,12.09 L 14,6.3 42.54,0 43.71,0.33 C 91.44,14 200.82,36.9 397.15,36.9 593.48,36.9 702.86,14 750.59,0.33 l 1.16,-0.33 28.51,6.3 -3.75,5.79 A 26.31,26.31 0 0 1 762.23,22.93 C 714.41,37.72 603.39,62.54 397.15,62.54 Z M 31.47,12.27 a 16.41,16.41 0 0 0 3.43,1.49 c 47.3,14.64 157.27,39.18 362.25,39.18 204.98,0 314.94,-24.54 362.24,-39.18 a 16.18,16.18 0 0 0 3.43,-1.49 L 752.05,9.89 c -48.81,13.83 -159,36.6 -354.9,36.6 -195.9,0 -306.1,-22.77 -354.91,-36.6 z"
               id="path1440" />
            <polygon
               style="fill:#2b262a"
               class="cls-18"
               points="601.5,166.47 589.15,170.24 580.44,172.77 589.17,189.84 615,181.44 628.62,165.94 640.08,143.37 624.1,147.77 616.52,154.06 "
               id="polygon1442" />
            <path
               style="fill:#fab15a"
               class="cls-17"
               d="m 583.56,174.6 a 3.6,3.6 0 0 1 -0.33,-7.18 c 34.79,-3.24 36.08,-30.23 36.12,-31.37 a 3.54,3.54 0 0 1 3.7,-3.49 3.59,3.59 0 0 1 3.49,3.68 c 0,0.35 -1.35,34.5 -42.64,38.35 z"
               id="path1444" />
            <path
               style="fill:#fab15a"
               class="cls-17"
               d="m 592.48,192.06 a 3.6,3.6 0 0 1 -0.33,-7.18 c 34.79,-3.25 36.08,-30.23 36.11,-31.38 a 3.55,3.55 0 0 1 3.74,-3.5 3.6,3.6 0 0 1 3.49,3.69 c 0,0.34 -1.35,34.49 -42.63,38.34 z"
               id="path1446" />
            <polygon
               style="fill:#2b262a"
               class="cls-18"
               points="194.94,166.47 207.3,170.24 216,172.77 207.28,189.84 181.45,181.44 167.83,165.94 156.36,143.37 172.35,147.77 179.92,154.06 "
               id="polygon1448" />
            <path
               style="fill:#fab15a"
               class="cls-17"
               d="m 212.88,174.6 h -0.34 c -41.28,-3.85 -42.62,-38 -42.63,-38.35 a 3.6,3.6 0 0 1 7.19,-0.19 c 0,1.2 1.36,28.14 36.11,31.37 a 3.6,3.6 0 0 1 -0.33,7.18 z"
               id="path1450" />
            <path
               style="fill:#fab15a"
               class="cls-17"
               d="m 204,192.06 h -0.34 C 162.34,188.19 161,154 161,153.7 a 3.6,3.6 0 0 1 7.19,-0.2 c 0,1.2 1.37,28.14 36.12,31.38 a 3.6,3.6 0 0 1 -0.33,7.18 z"
               id="path1452" />
            <path
               style="fill:#d8735e"
               class="cls-10"
               d="m 79.86,307.21 c 0,0 0.78,30.79 38.51,34.79 a 1.27,1.27 0 0 0 1.25,-0.68 l 7.72,-15.1 a 1.24,1.24 0 0 0 -1,-1.78 C 89.54,320 88.77,289.76 88.77,289.76"
               id="path1454" />
            <path
               style="fill:#231f20"
               class="cls-8"
               d="m 118.5,344.38 a 2.42,2.42 0 0 1 -0.38,0 C 78.75,340.23 77.47,307.62 77.46,307.29 l 4.8,-0.12 -2.4,0.06 2.4,-0.07 c 0,1.17 1.25,28.35 35.59,32.37 l 6.6,-12.92 C 87.6,321.34 86.39,290.16 86.38,289.84 l 4.79,-0.12 c 0,1.14 1.25,28.27 35.48,32.34 a 3.64,3.64 0 0 1 2.83,5.25 l -7.72,15.11 a 3.69,3.69 0 0 1 -3.26,1.96 z"
               id="path1456" />
            <path
               style="fill:#d8735e"
               class="cls-10"
               d="m 715,307.21 c 0,0 -0.8,30.79 -38.53,34.79 a 1.27,1.27 0 0 1 -1.25,-0.68 l -7.72,-15.1 a 1.24,1.24 0 0 1 1,-1.78 c 36.82,-4.38 37.59,-34.66 37.59,-34.66"
               id="path1458" />
            <path
               style="fill:#231f20"
               class="cls-8"
               d="m 676.34,344.38 a 3.66,3.66 0 0 1 -3.26,-2 l -7.71,-15.1 a 3.59,3.59 0 0 1 0,-3.34 3.67,3.67 0 0 1 2.79,-1.91 c 34.23,-4.07 35.44,-31.2 35.48,-32.35 l 4.79,0.13 c 0,0.32 -1.22,31.5 -38.07,36.77 l 6.6,12.92 c 34.48,-4 35.57,-31.2 35.59,-32.36 l 4.8,0.12 c 0,0.33 -1.29,32.94 -40.66,37.09 a 2.42,2.42 0 0 1 -0.35,0.03 z m 1,-4.17 z"
               id="path1460" />
          </g>
        </g>
        <circle
           style="fill:#d8735e"
           class="cls-10"
           cx="397.14999"
           cy="386.32001"
           r="27.18"
           id="circle1465" />
        <path
           style="fill:#231f20"
           class="cls-8"
           d="m 397.15,368.73 a 17.59,17.59 0 1 1 -17.59,17.59 17.61,17.61 0 0 1 17.59,-17.59 m 0,-9.59 a 27.18,27.18 0 1 0 27.17,27.18 27.18,27.18 0 0 0 -27.17,-27.18 z"
           id="path1467" />
        <circle
           style="fill:#fab15a"
           class="cls-17"
           cx="253.27"
           cy="371.92999"
           r="27.18"
           id="circle1469" />
        <path
           style="fill:#231f20"
           class="cls-8"
           d="m 253.27,354.34 a 17.59,17.59 0 1 1 -17.59,17.59 17.61,17.61 0 0 1 17.59,-17.59 m 0,-9.59 a 27.18,27.18 0 1 0 27.17,27.18 27.18,27.18 0 0 0 -27.17,-27.18 z"
           id="path1471" />
        <circle
           style="fill:#fab15a"
           class="cls-17"
           cx="541.03003"
           cy="371.92999"
           r="27.18"
           id="circle1473" />
        <path
           style="fill:#231f20"
           class="cls-8"
           d="M 541,354.34 A 17.59,17.59 0 1 1 523.41,371.93 17.61,17.61 0 0 1 541,354.34 m 0,-9.59 A 27.18,27.18 0 1 0 568.17,371.93 27.18,27.18 0 0 0 541,344.75 Z"
           id="path1475" />
        <path
           style="fill:#231f20"
           class="cls-8"
           d="m 397.15,553.47 c -204,0 -319.73,-23.55 -370.57,-37.59 A 36.15,36.15 0 0 1 4.47,463.66 L 240.22,33.77 A 36.14,36.14 0 0 1 271.9,15 h 250.49 a 36.12,36.12 0 0 1 31.68,18.76 l 235.75,429.9 a 36.15,36.15 0 0 1 -22.1,52.22 c -50.84,14.04 -166.59,37.59 -370.57,37.59 z M 271.9,19.8 A 31.33,31.33 0 0 0 244.43,36.07 L 8.68,466 a 31.35,31.35 0 0 0 19.18,45.29 c 50.6,14 165.87,37.41 369.29,37.41 203.42,0 318.68,-23.44 369.29,-37.41 A 31.34,31.34 0 0 0 785.61,466 L 549.87,36.07 A 31.36,31.36 0 0 0 522.39,19.8 Z"
           id="path1477" />
        <path
           style="fill:#231f20"
           class="cls-8"
           d="m 217.17,359.3 a 6.28,6.28 0 0 0 -1.09,12.47 l 72.2,12.7 a 6.65,6.65 0 0 0 1.08,0.09 6.28,6.28 0 0 0 1.1,-12.47 l -72.2,-12.7 a 6.77,6.77 0 0 0 -1.09,-0.09 z"
           id="path1479" />
        <path
           style="fill:#231f20"
           class="cls-8"
           d="m 577.12,359.3 a 6.65,6.65 0 0 0 -1.08,0.09 l -72.2,12.7 a 6.28,6.28 0 0 0 1.09,12.47 6.56,6.56 0 0 0 1.08,-0.09 l 72.21,-12.7 a 6.28,6.28 0 0 0 -1.1,-12.47 z"
           id="path1481" />
      </g>
    </g>
  </g>
</svg>
