<svg xmlns="http://www.w3.org/2000/svg" viewBox="0 0 192.77 205.14"><defs><style>.cls-1{fill:#c0392b;}.cls-2{fill:#e67e22;}.cls-3{fill:#ecf0f1;}</style></defs><title>Asset 2</title><g id="Layer_2" data-name="Layer 2"><g id="Layer_1-2" data-name="Layer 1"><path class="cls-1" d="M183.42,0c22.65,33.93-3,88.19-3,88.19,1.46-7.24-3.64-18-3.64-18-2.81,36.09-23.12,55.46-23.12,55.46,5.75-19.08-3.58-30.75-3.58-30.75,6.71,23.76-13.51,49.2-13.51,49.2C94.05,180,95,205.14,95,205.14c-19.35-49.6-41.48-59.54-55.82-73.84-10.4-10.37-27.9-47-27.9-47C7.81,86.67,7.19,99.77,7.19,99.77-8.2,42.07,5.9,7.64,5.9,7.64,94.75,13.85,183.42,0,183.42,0Z"/><path class="cls-2" d="M150.92,4.52C165.23,26,149,60.25,149,60.25c.93-4.58-2.29-11.34-2.29-11.34-1.78,22.8-14.61,35-14.61,35,3.63-12.06-2.27-19.43-2.27-19.43,4.24,15-8.53,31.09-8.53,31.09C94.43,118.26,95,134.16,95,134.16,82.34,101.45,69,96.88,59.76,87.49,54.31,82,42.13,57.81,42.13,57.81c-2.2,1.48-2.59,9.76-2.59,9.76-9.73-36.47-.81-58.23-.81-58.23C94.87,13.26,150.92,4.52,150.92,4.52Z"/><path class="cls-3" d="M73.67,9.6S68,29.2,77.56,35.05,95.9,62.65,95.9,62.65,101.77,40,111.86,35c15.3-7.72,9.86-23.11,9-27.4Z"/></g></g></svg>