<svg xmlns="http://www.w3.org/2000/svg" xmlns:xlink="http://www.w3.org/1999/xlink" viewBox="0 0 819.22 799.28"><defs><style>.cls-1,.cls-13{fill:none;}.cls-2{fill:#c0392b;}.cls-3{fill:#e67e22;}.cls-4{fill:#ecf0f1;}.cls-5{fill:#c1c1c1;}.cls-6{clip-path:url(#clip-path);}.cls-7{fill:#8c8c8c;}.cls-16,.cls-8{fill:#231f20;}.cls-9{fill:#fff;}.cls-10{fill:#d8735e;}.cls-11{fill:#65cec6;}.cls-12{clip-path:url(#clip-path-2);}.cls-13{opacity:0.44;}.cls-14{fill:#a0e0de;}.cls-15{clip-path:url(#clip-path-3);}.cls-16{opacity:0.3;}.cls-17{fill:#fab15a;}.cls-18{fill:#2b262a;}</style><clipPath id="clip-path"><path id="prop" class="cls-1" d="M448.07,534.54c-1.95-1-5.68-1.62-9.73-1.62H356c-4.06,0-7.79.62-9.73,1.62l-77.54,39.89c-3.45,1.78-.12,4,6.79,4.53,18,1.4,55.77,3.48,121.67,3.48s103.68-2.08,121.67-3.48c6.9-.54,10.23-2.75,6.78-4.53Z"/></clipPath><clipPath id="clip-path-2"><path class="cls-1" d="M536,273.69,485.24,99.26a8.88,8.88,0,0,0-7.78-4.61H316.83a8.88,8.88,0,0,0-7.78,4.61L258.34,273.69a8.87,8.87,0,0,0,5.14,12.74c16.33,5.05,64,13.78,133.67,15.78,69.61-2,117.33-10.73,133.66-15.78A8.87,8.87,0,0,0,536,273.69Z"/></clipPath><clipPath id="clip-path-3"><path class="cls-1" d="M552,34.92a33.73,33.73,0,0,0-29.58-17.51H271.9a33.75,33.75,0,0,0-29.58,17.51L6.58,464.81a33.75,33.75,0,0,0,20.64,48.76c54.67,15.09,169.56,37.5,369.93,37.5s315.26-22.41,369.93-37.5a33.75,33.75,0,0,0,20.64-48.76Z"/></clipPath></defs><title>Asset 3</title><g id="Layer_2" data-name="Layer 2"><g id="Layer_1-2" data-name="Layer 1"><path class="cls-2" d="M494.43,570c25.32,37.92-3.36,98.56-3.36,98.56,1.63-8.09-4.06-20-4.06-20-3.15,40.33-25.84,62-25.84,62,6.42-21.33-4-34.37-4-34.37,7.5,26.56-15.09,55-15.09,55-47.53,40-46.47,68.17-46.47,68.17-21.62-55.44-46.36-66.55-62.39-82.53-11.63-11.59-31.18-52.5-31.18-52.5-3.88,2.62-4.57,17.26-4.57,17.26-17.2-64.49-1.44-103-1.44-103C395.32,585.47,494.43,570,494.43,570Z"/><path class="cls-3" d="M458.1,575.05c16,24-2.13,62.28-2.13,62.28,1-5.11-2.56-12.67-2.56-12.67-2,25.49-16.33,39.17-16.33,39.17,4.05-13.48-2.54-21.72-2.54-21.72,4.74,16.79-9.54,34.75-9.54,34.75-30,25.31-29.36,43.08-29.36,43.08-14.19-36.55-29.11-41.66-39.43-52.15-6.09-6.2-19.71-33.18-19.71-33.18-2.44,1.66-2.88,10.91-2.88,10.91-10.87-40.76-.91-65.08-.91-65.08C395.46,584.82,458.1,575.05,458.1,575.05Z"/><path class="cls-4" d="M371.76,580.72s-6.37,21.92,4.35,28.46S396.61,640,396.61,640s6.56-25.27,17.83-30.95c17.11-8.62,11-25.82,10.09-30.62Z"/><path id="prop-2" data-name="prop" class="cls-5" d="M448.07,534.54c-1.95-1-5.68-1.62-9.73-1.62H356c-4.06,0-7.79.62-9.73,1.62l-77.54,39.89c-3.45,1.78-.12,4,6.79,4.53,18,1.4,55.77,3.48,121.67,3.48s103.68-2.08,121.67-3.48c6.9-.54,10.23-2.75,6.78-4.53Z"/><g class="cls-6"><path class="cls-7" d="M470.6,568.14l5.23,20c1.68,6.4,5.16,10.46,9,10.46h28.57c9.36,0,13.58-21.87,6.36-33l-22.62-34.81c-1.74-2.68-3.91-4.18-6.17-4.26l-174.57-6.1c-3.12-.11-42.57,34.58-44.51,39.12l6.49,2.67c-5.2,12.21,30.67-4.69,39-4.69l144.24.15C465.44,557.68,468.93,561.74,470.6,568.14Z"/></g><path class="cls-8" d="M397.15,584.83c-67.07,0-105.14-2.18-121.86-3.48-4.33-.34-9.64-1.44-10.31-4.77-.16-.8-.23-2.82,2.61-4.28l77.54-39.89c2.3-1.19,6.35-1.89,10.82-1.89h82.39c4.48,0,8.53.7,10.82,1.89L526.7,572.3c2.84,1.46,2.77,3.48,2.61,4.28-.67,3.33-6,4.43-10.31,4.77C502.28,582.65,464.21,584.83,397.15,584.83Zm-125.95-9a23.59,23.59,0,0,0,4.47.73c16.65,1.29,54.57,3.47,121.48,3.47s104.83-2.18,121.48-3.47a23.73,23.73,0,0,0,4.47-.73L447,536.67c-1.32-.68-4.49-1.36-8.63-1.36H356c-4.13,0-7.31.68-8.62,1.36Z"/><path class="cls-9" d="M552,34.92a33.73,33.73,0,0,0-29.58-17.51H271.9a33.75,33.75,0,0,0-29.58,17.51L6.58,464.81a33.75,33.75,0,0,0,20.64,48.76c54.67,15.09,169.56,37.5,369.93,37.5s315.26-22.41,369.93-37.5a33.75,33.75,0,0,0,20.64-48.76Z"/><path class="cls-10" d="M21.81,438.36a21.33,21.33,0,0,0,11.67,8.86c45.05,13.93,155.79,39.39,363.67,39.39s318.62-25.46,363.66-39.39a21.33,21.33,0,0,0,11.67-8.86l-20.57-38.85c-49.9,14.27-159.47,36.74-354.76,36.74S92.28,413.78,42.39,399.51Z"/><path class="cls-8" d="M742.12,422l4.92,9.29c-50.44,14.52-157.8,36.12-349.89,36.12S97.69,445.83,47.26,431.31L52.18,422c55.11,14,164,33.42,345,33.42S687,436.06,742.12,422m9.79-22.51c-49.9,14.27-159.47,36.74-354.76,36.74S92.28,413.78,42.39,399.51L21.81,438.36a21.33,21.33,0,0,0,11.67,8.86c45.05,13.93,155.79,39.39,363.67,39.39s318.62-25.46,363.66-39.39a21.33,21.33,0,0,0,11.67-8.86l-20.57-38.85Z"/><g id="window"><path class="cls-8" d="M555.7,284.39,497.77,85.15a10.13,10.13,0,0,0-8.89-5.26H305.41a10.13,10.13,0,0,0-8.89,5.26L238.6,284.39a10.13,10.13,0,0,0,5.87,14.55c18.65,5.77,73.16,15.75,152.68,18,79.52-2.29,134-12.27,152.68-18A10.13,10.13,0,0,0,555.7,284.39Z"/><path class="cls-11" d="M536,273.69,485.24,99.26a8.88,8.88,0,0,0-7.78-4.61H316.83a8.88,8.88,0,0,0-7.78,4.61L258.34,273.69a8.87,8.87,0,0,0,5.14,12.74c16.33,5.05,64,13.78,133.67,15.78,69.61-2,117.33-10.73,133.66-15.78A8.87,8.87,0,0,0,536,273.69Z"/><g id="window_clip" data-name="window clip"><g class="cls-12"><path class="cls-13" d="M562.89,288.29,502.34,80a10.59,10.59,0,0,0-9.29-5.51H301.25A10.61,10.61,0,0,0,292,80L231.4,288.29a10.6,10.6,0,0,0,6.14,15.22c19.5,6,76.48,16.45,159.61,18.85,83.13-2.4,140.11-12.82,159.61-18.85A10.59,10.59,0,0,0,562.89,288.29Z"/><polygon class="cls-14" points="242.88 275.3 463.89 54.28 493.05 74.5 252.71 314.85 242.88 275.3"/><polygon class="cls-14" points="286.88 311.27 507.89 90.25 556.21 125.82 315.87 366.17 286.88 311.27"/><polygon class="cls-14" points="233.05 244.8 454.06 23.78 470.43 29.51 230.09 269.85 233.05 244.8"/></g></g></g><g id="shuttle_clip" data-name="shuttle clip"><g class="cls-15"><path class="cls-16" d="M226.83,21.47c114.4,6.61,233.35,5.84,280.4,5.17a32.75,32.75,0,0,1,30,18.63L735.1,459.8a32.7,32.7,0,0,1-21.3,45.78c-62.58,16-221,39.84-592.89,27.34-12.44-.42,782.15,104.84,691-65.42C614.39,98.4,639.21,119.79,639.21,119.79L541,2.29S217.91,21,226.83,21.47Z"/><path class="cls-17" d="M21.81,9.49a21.27,21.27,0,0,0,11.67,8.85c45.05,13.94,155.79,39.4,363.67,39.4s318.62-25.46,363.66-39.4a21.27,21.27,0,0,0,11.67-8.85L751.91,4.94C702,19.22,592.44,41.69,397.15,41.69S92.28,19.22,42.39,4.94Z"/><path class="cls-8" d="M397.15,62.54c-206.24,0-317.26-24.82-365.08-39.61A26.37,26.37,0,0,1,17.78,12.09L14,6.3,42.54,0l1.17.33C91.44,14,200.82,36.9,397.15,36.9S702.86,14,750.59.33L751.75,0l28.51,6.3-3.75,5.79a26.31,26.31,0,0,1-14.28,10.84C714.41,37.72,603.39,62.54,397.15,62.54ZM31.47,12.27a16.41,16.41,0,0,0,3.43,1.49C82.2,28.4,192.17,52.94,397.15,52.94S712.09,28.4,759.39,13.76a16.18,16.18,0,0,0,3.43-1.49L752.05,9.89c-48.81,13.83-159,36.6-354.9,36.6S91.05,23.72,42.24,9.89Z"/><polygon class="cls-18" points="580.44 172.77 589.17 189.84 615 181.44 628.62 165.94 640.08 143.37 624.1 147.77 616.52 154.06 601.5 166.47 589.15 170.24 580.44 172.77"/><path class="cls-17" d="M583.56,174.6a3.6,3.6,0,0,1-.33-7.18c34.79-3.24,36.08-30.23,36.12-31.37a3.54,3.54,0,0,1,3.7-3.49,3.59,3.59,0,0,1,3.49,3.68c0,.35-1.35,34.5-42.64,38.35Z"/><path class="cls-17" d="M592.48,192.06a3.6,3.6,0,0,1-.33-7.18c34.79-3.25,36.08-30.23,36.11-31.38A3.55,3.55,0,0,1,632,150a3.6,3.6,0,0,1,3.49,3.69c0,.34-1.35,34.49-42.63,38.34Z"/><polygon class="cls-18" points="216 172.77 207.28 189.84 181.45 181.44 167.83 165.94 156.36 143.37 172.35 147.77 179.92 154.06 194.94 166.47 207.3 170.24 216 172.77"/><path class="cls-17" d="M212.88,174.6h-.34c-41.28-3.85-42.62-38-42.63-38.35a3.6,3.6,0,0,1,7.19-.19c0,1.2,1.36,28.14,36.11,31.37a3.6,3.6,0,0,1-.33,7.18Z"/><path class="cls-17" d="M204,192.06l-.34,0C162.34,188.19,161,154,161,153.7a3.6,3.6,0,0,1,7.19-.2c0,1.2,1.37,28.14,36.12,31.38a3.6,3.6,0,0,1-.33,7.18Z"/><path class="cls-10" d="M79.86,307.21S80.64,338,118.37,342a1.27,1.27,0,0,0,1.25-.68l7.72-15.1a1.24,1.24,0,0,0-1-1.78C89.54,320,88.77,289.76,88.77,289.76"/><path class="cls-8" d="M118.5,344.38a2.42,2.42,0,0,1-.38,0c-39.37-4.15-40.65-36.76-40.66-37.09l4.8-.12-2.4.06,2.4-.07c0,1.17,1.25,28.35,35.59,32.37l6.6-12.92c-36.85-5.27-38.06-36.45-38.07-36.77l4.79-.12c0,1.14,1.25,28.27,35.48,32.34a3.64,3.64,0,0,1,2.83,5.25l-7.72,15.11A3.69,3.69,0,0,1,118.5,344.38Z"/><path class="cls-10" d="M715,307.21S714.2,338,676.47,342a1.27,1.27,0,0,1-1.25-.68l-7.72-15.1a1.24,1.24,0,0,1,1-1.78c36.82-4.38,37.59-34.66,37.59-34.66"/><path class="cls-8" d="M676.34,344.38a3.66,3.66,0,0,1-3.26-2l-7.71-15.1a3.59,3.59,0,0,1,0-3.34,3.67,3.67,0,0,1,2.79-1.91c34.23-4.07,35.44-31.2,35.48-32.35l4.79.13c0,.32-1.22,31.5-38.07,36.77l6.6,12.92c34.48-4,35.57-31.2,35.59-32.36l4.8.12c0,.33-1.29,32.94-40.66,37.09A2.42,2.42,0,0,1,676.34,344.38Zm1-4.17Z"/></g></g><circle class="cls-10" cx="397.15" cy="386.32" r="27.18"/><path class="cls-8" d="M397.15,368.73a17.59,17.59,0,1,1-17.59,17.59,17.61,17.61,0,0,1,17.59-17.59m0-9.59a27.18,27.18,0,1,0,27.17,27.18,27.18,27.18,0,0,0-27.17-27.18Z"/><circle class="cls-17" cx="253.27" cy="371.93" r="27.18"/><path class="cls-8" d="M253.27,354.34a17.59,17.59,0,1,1-17.59,17.59,17.61,17.61,0,0,1,17.59-17.59m0-9.59a27.18,27.18,0,1,0,27.17,27.18,27.18,27.18,0,0,0-27.17-27.18Z"/><circle class="cls-17" cx="541.03" cy="371.93" r="27.18"/><path class="cls-8" d="M541,354.34a17.59,17.59,0,1,1-17.59,17.59A17.61,17.61,0,0,1,541,354.34m0-9.59a27.18,27.18,0,1,0,27.17,27.18A27.18,27.18,0,0,0,541,344.75Z"/><path class="cls-8" d="M397.15,553.47c-204,0-319.73-23.55-370.57-37.59A36.15,36.15,0,0,1,4.47,463.66L240.22,33.77A36.14,36.14,0,0,1,271.9,15H522.39a36.12,36.12,0,0,1,31.68,18.76L789.82,463.66a36.15,36.15,0,0,1-22.1,52.22C716.88,529.92,601.13,553.47,397.15,553.47ZM271.9,19.8a31.33,31.33,0,0,0-27.47,16.27L8.68,466a31.35,31.35,0,0,0,19.18,45.29c50.6,14,165.87,37.41,369.29,37.41s318.68-23.44,369.29-37.41A31.34,31.34,0,0,0,785.61,466L549.87,36.07A31.36,31.36,0,0,0,522.39,19.8Z"/><path class="cls-8" d="M217.17,359.3a6.28,6.28,0,0,0-1.09,12.47l72.2,12.7a6.65,6.65,0,0,0,1.08.09,6.28,6.28,0,0,0,1.1-12.47l-72.2-12.7a6.77,6.77,0,0,0-1.09-.09Z"/><path class="cls-8" d="M577.12,359.3a6.65,6.65,0,0,0-1.08.09l-72.2,12.7a6.28,6.28,0,0,0,1.09,12.47,6.56,6.56,0,0,0,1.08-.09l72.21-12.7a6.28,6.28,0,0,0-1.1-12.47Z"/></g></g></svg>
