<svg xmlns="http://www.w3.org/2000/svg" viewBox="0 0 819.2 799.3"><defs><style>.cls-1{fill:none}.cls-8{fill:#231f20}.cls-10{fill:#d8735e}.cls-14{fill:#a0e0de}.cls-17{fill:#fab15a}.cls-18{fill:#2b262a}</style><clipPath id="clip-path"><path id="prop" class="cls-1" d="M448 534.5c-1.9-1-5.6-1.6-9.7-1.6H356c-4 0-7.8.6-9.7 1.6l-77.6 40c-3.4 1.7 0 4 6.8 4.5 18 1.4 55.8 3.4 121.7 3.4s103.7-2 121.7-3.4c6.9-.6 10.2-2.8 6.7-4.6z"/></clipPath><clipPath id="clip-path-2"><path class="cls-1" d="M536 273.7L485.2 99.3a8.9 8.9 0 0 0-7.7-4.7H316.8a8.9 8.9 0 0 0-7.8 4.7l-50.7 174.4a8.9 8.9 0 0 0 5.2 12.7c16.3 5 64 13.8 133.6 15.8 69.7-2 117.4-10.7 133.7-15.8a8.9 8.9 0 0 0 5.2-12.7z"/></clipPath><clipPath id="clip-path-3"><path class="cls-1" d="M552 35a33.7 33.7 0 0 0-29.6-17.6H272A33.8 33.8 0 0 0 242.3 35L6.6 465a33.8 33.8 0 0 0 20.6 48.7c54.7 15 169.6 37.5 370 37.5s315.2-22.4 369.9-37.5a33.8 33.8 0 0 0 20.6-48.8z"/></clipPath></defs><g id="Layer_2" data-name="Layer 2"><g id="Layer_1-2" data-name="Layer 1"><path d="M494.4 570c25.4 38-3.3 98.6-3.3 98.6 1.6-8.1-4-20-4-20-3.2 40.3-26 62-26 62 6.5-21.4-4-34.4-4-34.4 7.6 26.5-15 55-15 55-47.5 40-46.5 68.2-46.5 68.2-21.6-55.5-46.4-66.6-62.4-82.6-11.6-11.6-31.2-52.5-31.2-52.5-3.8 2.6-4.5 17.3-4.5 17.3-17.2-64.5-1.5-103-1.5-103 99.3 6.9 198.4-8.6 198.4-8.6z" fill="#c0392b"/><path d="M458.1 575c16 24-2.1 62.3-2.1 62.3 1-5-2.6-12.6-2.6-12.6-2 25.4-16.3 39.1-16.3 39.1 4-13.5-2.6-21.7-2.6-21.7C439.3 659 425 677 425 677c-30 25.3-29.4 43-29.4 43-14.2-36.5-29-41.6-39.4-52.1-6-6.2-19.7-33.2-19.7-33.2-2.4 1.7-2.9 11-2.9 11-10.9-40.8-.9-65.2-.9-65.2 62.8 4.4 125.4-5.4 125.4-5.4z" fill="#e67e22"/><path d="M371.8 580.7s-6.4 22 4.3 28.5 20.5 30.8 20.5 30.8 6.6-25.3 17.8-31c17.2-8.6 11-25.8 10.1-30.6z" fill="#ecf0f1"/><path id="prop-2" data-name="prop" d="M448 534.5c-1.9-1-5.6-1.6-9.7-1.6H356c-4 0-7.8.6-9.7 1.6l-77.6 40c-3.4 1.7 0 4 6.8 4.5 18 1.4 55.8 3.4 121.7 3.4s103.7-2 121.7-3.4c6.9-.6 10.2-2.8 6.7-4.6z" fill="#c1c1c1"/><g clip-path="url(#clip-path)"><path d="M470.6 568.1l5.2 20c1.7 6.4 5.2 10.5 9 10.5h28.6c9.4 0 13.6-21.9 6.4-33L497 530.8c-1.7-2.7-3.9-4.2-6.1-4.3l-174.6-6c-3.1-.2-42.6 34.5-44.5 39l6.5 2.7c-5.2 12.2 30.7-4.7 39-4.7l144.2.2c3.8 0 7.3 4 9 10.4z" fill="#8c8c8c"/></g><path class="cls-8" d="M397.1 584.8c-67 0-105-2.1-121.8-3.4-4.3-.4-9.7-1.5-10.3-4.8-.2-.8-.3-2.8 2.6-4.3l77.5-39.9c2.3-1.2 6.4-1.9 10.8-1.9h82.4c4.5 0 8.6.7 10.9 2l77.5 39.8c2.8 1.5 2.8 3.5 2.6 4.3-.7 3.3-6 4.4-10.3 4.7-16.7 1.4-54.8 3.5-121.9 3.5zm-125.9-9a23.6 23.6 0 0 0 4.5.8c16.6 1.3 54.5 3.4 121.5 3.4s104.8-2.1 121.4-3.4a23.7 23.7 0 0 0 4.5-.8L447 536.7a22 22 0 0 0-8.6-1.4H356c-4.1 0-7.3.7-8.6 1.4z"/><path d="M552 35a33.7 33.7 0 0 0-29.6-17.6H272A33.8 33.8 0 0 0 242.3 35L6.6 465a33.8 33.8 0 0 0 20.6 48.7c54.7 15 169.6 37.5 370 37.5s315.2-22.4 369.9-37.5a33.8 33.8 0 0 0 20.6-48.8z" fill="#fff"/><path class="cls-10" d="M21.8 438.4a21.3 21.3 0 0 0 11.7 8.8c45 14 155.8 39.4 363.7 39.4s318.6-25.5 363.6-39.4a21.3 21.3 0 0 0 11.7-8.8l-20.6-38.9c-49.9 14.3-159.5 36.7-354.8 36.7S92.3 413.9 42.4 399.6z"/><path class="cls-8" d="M742.1 422l5 9.3c-50.5 14.5-157.9 36.1-350 36.1s-299.4-21.6-349.8-36l4.9-9.4c55 14 164 33.4 345 33.4s289.8-19.3 345-33.4m9.7-22.5c-49.9 14.3-159.5 36.7-354.8 36.7S92.3 413.8 42.4 399.5l-20.6 38.9a21.3 21.3 0 0 0 11.7 8.8c45 14 155.8 39.4 363.7 39.4s318.6-25.5 363.6-39.4a21.3 21.3 0 0 0 11.7-8.8l-20.6-38.9z"/><g id="window"><path class="cls-8" d="M555.7 284.4l-58-199.2a10.1 10.1 0 0 0-8.8-5.3H305.4a10.1 10.1 0 0 0-8.9 5.2l-57.9 199.3a10.1 10.1 0 0 0 5.9 14.5c18.6 5.8 73.1 15.8 152.7 18 79.5-2.2 134-12.2 152.6-18a10.1 10.1 0 0 0 5.9-14.5z"/><path d="M536 273.7L485.2 99.3a8.9 8.9 0 0 0-7.7-4.7H316.8a8.9 8.9 0 0 0-7.8 4.7l-50.7 174.4a8.9 8.9 0 0 0 5.2 12.7c16.3 5 64 13.8 133.6 15.8 69.7-2 117.4-10.7 133.7-15.8a8.9 8.9 0 0 0 5.2-12.7z" fill="#65cec6"/><g clip-path="url(#clip-path-2)" id="window_clip" data-name="window clip"><path d="M562.9 288.3L502.3 80a10.6 10.6 0 0 0-9.3-5.5H301.2A10.6 10.6 0 0 0 292 80l-60.6 208.3a10.6 10.6 0 0 0 6.1 15.2c19.5 6 76.5 16.5 159.7 18.9 83-2.4 140-12.9 159.6-18.9a10.6 10.6 0 0 0 6-15.2z" opacity=".4" fill="none"/><path class="cls-14" d="M242.9 275.3l221-221L493 74.5 252.7 314.9l-9.8-39.6zM286.9 311.3l221-221 48.3 35.5L316 366.2l-29-55zM233 244.8l221-221 16.4 5.7L230.1 270l3-25.1z"/></g></g><g clip-path="url(#clip-path-3)" id="shuttle_clip" data-name="shuttle clip"><path d="M226.8 21.5c114.4 6.6 233.4 5.8 280.4 5.1a32.8 32.8 0 0 1 30 18.7l197.9 414.5a32.7 32.7 0 0 1-21.3 45.8c-62.6 16-221 39.8-592.9 27.3-12.4-.4 782.2 104.9 691-65.4C614.4 98.4 639.2 119.8 639.2 119.8L541 2.3S218 21 226.8 21.5z" opacity=".3" fill="#231f20"/><path class="cls-17" d="M21.8 9.5a21.3 21.3 0 0 0 11.7 8.8c45 14 155.8 39.4 363.7 39.4s318.6-25.4 363.6-39.4a21.3 21.3 0 0 0 11.7-8.8l-20.6-4.6C702 19.2 592.4 41.7 397.1 41.7S92.3 19.2 42.4 4.9z"/><path class="cls-8" d="M397.1 62.5C191 62.5 80 37.7 32.1 23a26.4 26.4 0 0 1-14.3-10.8L14 6.3 42.5 0l1.2.3C91.4 14 200.8 37 397.1 37S703 14 750.6.3l1.1-.3 28.6 6.3-3.8 5.8a26.3 26.3 0 0 1-14.3 10.8c-47.8 14.8-158.8 39.6-365 39.6zM31.5 12.3a16.4 16.4 0 0 0 3.4 1.5c47.3 14.6 157.3 39.1 362.3 39.1S712 28.4 759.3 13.8a16.2 16.2 0 0 0 3.4-1.5L752 9.9c-48.8 13.8-159 36.6-354.9 36.6S91.1 23.7 42.3 9.9z"/><path class="cls-18" d="M580.4 172.8l8.8 17 25.8-8.4 13.6-15.5 11.5-22.5-16 4.4-7.6 6.3-15 12.4-12.4 3.7-8.7 2.6z"/><path class="cls-17" d="M583.6 174.6a3.6 3.6 0 0 1-.4-7.2c34.8-3.2 36.1-30.2 36.1-31.4a3.5 3.5 0 0 1 3.7-3.4 3.6 3.6 0 0 1 3.5 3.6c0 .4-1.3 34.5-42.6 38.4z"/><path class="cls-17" d="M592.5 192a3.6 3.6 0 0 1-.3-7.1c34.7-3.3 36-30.3 36-31.4a3.5 3.5 0 0 1 3.8-3.5 3.6 3.6 0 0 1 3.5 3.7c0 .3-1.4 34.5-42.6 38.3z"/><path class="cls-18" d="M216 172.8l-8.7 17-25.9-8.4-13.6-15.5-11.4-22.5 16 4.4 7.5 6.3 15 12.4 12.4 3.7 8.7 2.6z"/><path class="cls-17" d="M212.9 174.6h-.4c-41.2-3.9-42.6-38-42.6-38.4a3.6 3.6 0 0 1 7.2-.1c0 1.2 1.4 28.1 36.1 31.3a3.6 3.6 0 0 1-.3 7.2z"/><path class="cls-17" d="M204 192h-.3c-41.4-3.8-42.7-38-42.7-38.3a3.6 3.6 0 0 1 7.2-.2c0 1.2 1.4 28.1 36.1 31.4a3.6 3.6 0 0 1-.3 7.2z"/><path class="cls-10" d="M79.9 307.2s.7 30.8 38.5 34.8a1.3 1.3 0 0 0 1.2-.7l7.7-15a1.2 1.2 0 0 0-1-1.9c-36.8-4.4-37.5-34.6-37.5-34.6"/><path class="cls-8" d="M118.5 344.4a2.4 2.4 0 0 1-.4 0c-39.3-4.2-40.6-36.8-40.6-37.1l4.8-.1h-2.4 2.4c0 1.1 1.2 28.3 35.6 32.3l6.6-12.9c-36.9-5.3-38.1-36.4-38.1-36.8h4.8c0 1 1.2 28.2 35.4 32.3a3.6 3.6 0 0 1 2.9 5.2l-7.7 15.1a3.7 3.7 0 0 1-3.3 2z"/><path class="cls-10" d="M715 307.2s-.8 30.8-38.5 34.8a1.3 1.3 0 0 1-1.3-.7l-7.7-15a1.2 1.2 0 0 1 1-1.9c36.8-4.3 37.6-34.6 37.6-34.6"/><path class="cls-8" d="M676.3 344.4a3.7 3.7 0 0 1-3.2-2l-7.7-15.1a3.6 3.6 0 0 1 0-3.4 3.7 3.7 0 0 1 2.8-1.9c34.2-4 35.4-31.2 35.4-32.3l4.8.1c0 .3-1.2 31.5-38 36.8l6.6 12.9c34.4-4 35.5-31.2 35.5-32.4l4.8.2c0 .3-1.2 32.9-40.6 37a2.4 2.4 0 0 1-.4 0zm1-4.2z"/></g><circle class="cls-10" cx="397.1" cy="386.3" r="27.2"/><path class="cls-8" d="M397.1 368.7a17.6 17.6 0 1 1-17.5 17.6 17.6 17.6 0 0 1 17.5-17.6m0-9.6a27.2 27.2 0 1 0 27.2 27.2 27.2 27.2 0 0 0-27.2-27.2z"/><circle class="cls-17" cx="253.3" cy="371.9" r="27.2"/><path class="cls-8" d="M253.3 354.3a17.6 17.6 0 1 1-17.6 17.6 17.6 17.6 0 0 1 17.6-17.6m0-9.6a27.2 27.2 0 1 0 27.1 27.2 27.2 27.2 0 0 0-27.1-27.1z"/><circle class="cls-17" cx="541" cy="371.9" r="27.2"/><path class="cls-8" d="M541 354.3a17.6 17.6 0 1 1-17.6 17.6 17.6 17.6 0 0 1 17.6-17.6m0-9.6a27.2 27.2 0 1 0 27.2 27.2 27.2 27.2 0 0 0-27.2-27.1z"/><path class="cls-8" d="M397.1 553.5c-204 0-319.7-23.6-370.5-37.6a36.1 36.1 0 0 1-22.1-52.2l235.7-430A36.1 36.1 0 0 1 272 15h250.5A36.1 36.1 0 0 1 554 33.8l235.7 429.9a36.1 36.1 0 0 1-22 52.2c-51 14-166.7 37.6-370.6 37.6zM272 19.8a31.3 31.3 0 0 0-27.5 16.3L8.7 466a31.4 31.4 0 0 0 19.2 45.3c50.6 14 165.8 37.4 369.3 37.4s318.6-23.4 369.2-37.4a31.3 31.3 0 0 0 19.2-45.3L550 36a31.4 31.4 0 0 0-27.5-16.2z"/><path class="cls-8" d="M217.2 359.3a6.3 6.3 0 0 0-1.1 12.5l72.2 12.7a6.7 6.7 0 0 0 1 0 6.3 6.3 0 0 0 1.2-12.4l-72.2-12.7a6.8 6.8 0 0 0-1.1-.1zM577.1 359.3a6.7 6.7 0 0 0-1 0l-72.3 12.8a6.3 6.3 0 0 0 1.1 12.5 6.6 6.6 0 0 0 1.1-.1l72.2-12.7a6.3 6.3 0 0 0-1-12.5z"/></g></g></svg>